<?xml version="1.0" encoding="utf-8"?>
<!-- Generator: Adobe Illustrator 26.0.2, SVG Export Plug-In . SVG Version: 6.00 Build 0)  -->
<svg version="1.1" id="Capa_1" xmlns="http://www.w3.org/2000/svg" xmlns:xlink="http://www.w3.org/1999/xlink" x="0px" y="0px"
	 viewBox="0 0 200 200" style="enable-background:new 0 0 200 200;" xml:space="preserve">
<style type="text/css">
	.st0{fill:#4BAEAF;}
	.st1{fill:#FFFFFF;}
	.st2{fill:#353534;}
</style>
<path class="st0" d="M198,99.6c0.2,54.1-43.5,98.2-97.6,98.4S2.2,154.5,2,100.4S45.5,2.2,99.6,2l0,0C153.7,1.8,197.8,45.5,198,99.6
	L198,99.6z"/>
<path class="st1" d="M186,99.6c0.2,47.5-38,86.1-85.6,86.4c-47.5,0.2-86.1-38-86.4-85.6C13.8,52.9,52.1,14.3,99.7,14l0,0l0,0
	C147.1,13.9,185.9,52.2,186,99.6z"/>
<path class="st0" d="M162,146.2c-35,0.3-33.9-20.7-33.9-20.7c0-0.7,0-1.4,0.1-2.1c0,0,0.3-3.5,2.2-6.9c1.9-3.5,5.2-6.9,11.3-6.9
	c1.5,0,3.1,0.3,4.5,1.1c6.4,3.4,2.2,9.8,2.2,9.8c8-1.3,17.8-10.1,16.2-25.7c-1.6-15.6-20.1-23.6-20.1-23.6c0.5-3.6,0-4.8,0-4.8
	c-39.3-23.8-70-18.7-70-18.7l7.6,7.8c-0.7-0.1-1.6-0.1-2.3-0.1c-32,1.2-58.5,27.9-58.5,60.9c0,1.4-2.1,36.5,14.3,53
	c12.9,12.9,44.6,22.3,61.5,28.1c0,0,57.1-13.4,78.2-47.8l-0.3-7.2C172,146.1,162,146.2,162,146.2z M113.6,64.6
	c10.4-0.1,19.9,2.5,26.9,6.6c-2.5-0.7-5-1.3-7.6-1.7c-1.2,1.3-2.6,2.3-4.1,3.1l-0.1,0.1C117.6,70.4,113.6,64.6,113.6,64.6z"/>
<path class="st2" d="M130,68.5"/>
</svg>
