<svg width="19" height="19" viewBox="0 0 19 19" fill="none" xmlns="http://www.w3.org/2000/svg">
<g clip-path="url(#clip0_270_2609)">
<path d="M2.76088 2.73562C0.992367 4.49032 -0.000976562 6.86879 -0.000976562 9.34864C-0.000976562 11.8285 0.992367 14.2069 2.76088 15.9616L16.109 2.73562C14.3381 0.983282 11.9377 -0.000976562 9.43493 -0.000976562C6.93219 -0.000976562 4.53177 0.983282 2.76088 2.73562ZM7.77143 6.04213C7.44131 5.71513 7.21648 5.29846 7.12537 4.84484C7.03426 4.39122 7.08095 3.92102 7.25955 3.49369C7.43815 3.06637 7.74063 2.70113 8.12874 2.44416C8.51685 2.18718 8.97316 2.05002 9.43994 2.05002C9.90673 2.05002 10.363 2.18718 10.7511 2.44416C11.1392 2.70113 11.4417 3.06637 11.6203 3.49369C11.7989 3.92102 11.8456 4.39122 11.7545 4.84484C11.6634 5.29846 11.4386 5.71513 11.1085 6.04213C10.6632 6.47789 10.0616 6.72059 9.43579 6.71687C8.81 6.71315 8.21133 6.4633 7.77143 6.02227V6.04213Z" fill="currentColor"/>
<path d="M16.6349 3.30664C19.9218 6.87131 19.4758 12.268 17.1359 14.8695C17.0457 14.9688 16.69 15.3312 16.6349 15.366C15.5075 14.2042 11.3838 11.5183 6.51855 13.2907L16.6349 3.30664Z" fill="currentColor"/>
<path d="M16.1087 15.9513C12.426 19.6053 6.9695 20.1564 3.28174 16.5073C7.34028 12.476 12.0903 12.5306 16.1087 15.9513Z" fill="currentColor"/>
<path d="M8.60306 3.53998C8.43786 3.70391 8.3254 3.91268 8.27992 4.13992C8.23443 4.36715 8.25795 4.60265 8.3475 4.81664C8.43706 5.03064 8.58862 5.21353 8.78304 5.3422C8.97746 5.47087 9.20602 5.53955 9.43982 5.53955C9.67362 5.53955 9.90217 5.47087 10.0966 5.3422C10.291 5.21353 10.4426 5.03064 10.5321 4.81664C10.6217 4.60265 10.6452 4.36715 10.5997 4.13992C10.5542 3.91268 10.4418 3.70391 10.2766 3.53998C10.0541 3.32108 9.75333 3.19824 9.43982 3.19824C9.1263 3.19824 8.82551 3.32108 8.60306 3.53998Z" fill="currentColor"/>
</g>
<defs>
<clipPath id="clip0_270_2609">
<rect width="19" height="19" fill="none"/>
</clipPath>
</defs>
</svg>
