<?xml version="1.0" encoding="utf-8"?>
<!-- Generator: Adobe Illustrator 26.0.2, SVG Export Plug-In . SVG Version: 6.00 Build 0)  -->
<svg version="1.1" id="Livello_1" xmlns="http://www.w3.org/2000/svg" xmlns:xlink="http://www.w3.org/1999/xlink" x="0px" y="0px"
	 viewBox="0 0 200 200" style="enable-background:new 0 0 200 200;" xml:space="preserve">
<style type="text/css">
	.st0{fill:#4BAEAF;}
	.st1{fill:#FFFFFF;}
</style>
<path class="st0" d="M198,99.6c0.2,54.1-43.5,98.2-97.6,98.4S2.2,154.5,2,100.4S45.5,2.2,99.6,2l0,0C153.7,1.8,197.8,45.5,198,99.6
	L198,99.6z"/>
<path class="st1" d="M186,99.6c0.2,47.5-38,86.1-85.6,86.4c-47.5,0.2-86.1-38-86.4-85.6C13.8,52.9,52.1,14.3,99.7,14l0,0l0,0
	C147.1,13.9,185.9,52.2,186,99.6z"/>
<path class="st0" d="M84.3,93.1c0,3.8,0,7.6,0,11.5c0,0.3,0,0.6,0.2,0.9c0.1,0.3,0.3,0.5,0.6,0.7c0.4,0,1.2-0.3,1.7-0.7
	c3.3-3.1,6.3-6.6,9.8-9.5c6.8-5.8,15.6-8.7,24.6-8.1l11.9,0.3c8.2,0.3,15.9,3.6,21.8,9.3c3.2,3,5.8,6.5,7.6,10.5
	c1.8,4,2.7,8.3,2.8,12.7c0.5,7-1.2,14-4.8,20c-3.4,5.3-8.2,9.6-13.9,12.5c-10.9,5.8-22.7,9.5-34.9,11c-18.8,2.3-37.9-1.3-54.6-10.3
	c-6-3-11.6-6.7-16.6-11c-2.3-1.9-4-4.5-4.8-7.4c-0.8-2.9-0.7-6,0.3-8.8c5.9-22.3,11.9-44.6,17.8-67.1c1.1-4.9,3.1-9.5,5.9-13.7
	c2-2.8,4.5-5.1,7.4-6.9c2.9-1.8,6.1-3,9.5-3.5c6.2-0.9,12.5-0.9,18.6,0c3.5,0.5,6.6,2.2,9,4.7c2.4,2.6,3.8,5.8,4,9.3
	c0,6.3,0,12.7,0,19.1c0,1.5-0.4,3-1,4.4c-0.6,1.4-1.5,2.6-2.6,3.7c-1.1,1-2.4,1.8-3.8,2.4c-1.4,0.5-2.9,0.8-4.4,0.8
	c-3.4,0-6.8,0-10.3,0c-1.6,0-2,0.4-2,2L84.3,93.1z M75.6,96.1c0-6,0-12,0-18c0-1.6,0-3.2,0-4.8c0-1.8,0.4-2.1,2.2-2.1h16
	c0.9,0,1.9-0.1,2.8-0.3c1.9-0.3,2.7-1.1,2.7-3c0-5.2,0.4-10.6,0-15.9c0.1-1.1,0-2.2-0.3-3.3c-0.4-1-0.9-2-1.7-2.8s-1.7-1.4-2.7-1.8
	c-1-0.4-2.1-0.5-3.2-0.4c-4.1-0.2-8.3-0.1-12.4,0.3c-2.7,0.2-5.2,1-7.5,2.3c-2.3,1.4-4.2,3.2-5.7,5.5c-1.6,2.5-2.8,5.2-3.6,8.1
	c-4.5,16.6-8.9,33.1-13.4,49.7c-1.7,6.3-3.4,12.7-5.2,19.1c-0.5,1.7-0.5,3.6,0.1,5.3c0.6,1.7,1.7,3.2,3.2,4.2
	c0.9,0.7,1.8,1.4,2.8,1.9c7.1,3.6,14.2,7.5,21.5,10.7c11.7,4.9,24.5,6.7,37.1,5.2c11.9-1.5,23.5-5.1,34.2-10.7
	c3.8-1.9,7.1-4.7,9.4-8.3c3.4-5.5,4.8-12,3.9-18.4c-0.6-5.3-3-10.2-6.6-14c-3.7-3.8-8.5-6.4-13.7-7.2c-5.2-0.6-10.7-0.7-16.1-0.8
	c-2,0-3.9,0.1-5.8,0.4c-5.5,1-10.6,3.8-14.4,7.9c-4.7,4.8-9.3,9.7-14.1,14.4c-1.6,1.3-3.3,2.4-5.2,3.3c-0.4,0.2-0.9,0.3-1.3,0.2
	c-0.4-0.1-0.8-0.4-1.1-0.7c-1.4-1.4-2.1-3.2-2.2-5.2C75.6,110.1,75.6,103.1,75.6,96.1z"/>
</svg>
