<?xml version="1.0" encoding="utf-8"?>
<!-- Generator: Adobe Illustrator 26.0.2, SVG Export Plug-In . SVG Version: 6.00 Build 0)  -->
<svg version="1.1" id="Livello_1" xmlns="http://www.w3.org/2000/svg" xmlns:xlink="http://www.w3.org/1999/xlink" x="0px" y="0px"
	 viewBox="0 0 200 200" style="enable-background:new 0 0 200 200;" xml:space="preserve">
<style type="text/css">
	.st0{fill:#4BAEAF;}
	.st1{fill:#FFFFFF;}
</style>
<path class="st0" d="M198,99.6c0.2,54.1-43.5,98.2-97.6,98.4S2.2,154.5,2,100.4S45.5,2.2,99.6,2l0,0C153.7,1.8,197.8,45.5,198,99.6
	L198,99.6z"/>
<path class="st1" d="M186,99.6c0.2,47.5-38,86.1-85.6,86.4c-47.5,0.2-86.1-38-86.4-85.6C13.8,52.9,52.1,14.3,99.7,14l0,0l0,0
	C147.1,13.9,185.9,52.2,186,99.6z"/>
<path class="st0" d="M84.3,104.6c0,0.3,0,0.6,0.2,0.9c0.1,0.3,0.3,0.5,0.6,0.7c0.4,0,1.2-0.3,1.7-0.7c3.3-3.1,6.3-6.6,9.8-9.5
	c6.8-5.8,15.6-7.8,24.6-7.8h11.9c8.8,0,15.9,3.6,21.8,9.3c3.2,3,5.8,6.5,7.6,10.5s2.7,8.3,2.8,12.7c0.5,7-1.2,14-4.8,20
	c-3.4,5.3-8.2,9.6-13.9,12.5c-10.9,5.8-22.7,9.5-34.9,11c-18.8,2.3-37.9-1.3-54.6-10.3c-6-3-11.6-6.7-16.6-11
	c-2.3-1.9-4-4.5-4.8-7.4s-0.7-6,0.3-8.8c5.9-22.3,11.9-44.6,17.8-67.1c1.1-4.9,3.1-9.5,5.9-13.7c2-2.8,4.5-5.1,7.4-6.9
	c2.9-1.8,6.1-3,9.5-3.5c6.2-0.9,12.5-0.9,18.6,0c3.5,0.5,6.6,2.2,9,4.7c2.4,2.6,3.8,5.8,4,9.3c0,6.3,0,12.7,0,19.1
	c0,1.5-0.4,3-1,4.4s-1.5,2.6-2.6,3.7c-1.1,1-2.4,1.8-3.8,2.4c-1.4,0.5-2.9,0.8-4.4,0.8c-3.4,0-6.8,0-10.3,0c-1.6,0-2,0.4-2,2
	C84.1,81.9,84.3,100.7,84.3,104.6z"/>
</svg>
