<svg width="19" height="19" viewBox="0 0 19 19" fill="none" xmlns="http://www.w3.org/2000/svg">
<path d="M7.19814 8.49393C7.19814 9.05165 7.19814 9.60934 7.19814 10.1671C7.19634 10.2126 7.20491 10.258 7.22321 10.2998C7.24151 10.3416 7.26905 10.3786 7.30378 10.4082C7.36414 10.4082 7.48487 10.3706 7.54524 10.3103C8.02062 9.85052 8.46581 9.3531 8.97137 8.92351C9.96747 8.07485 11.257 7.65006 12.5631 7.74027L14.2986 7.78548C15.4917 7.82767 16.6266 8.31115 17.4829 9.14208C17.9525 9.57331 18.3286 10.096 18.5882 10.678C18.8477 11.26 18.9852 11.889 18.992 12.526C19.0693 13.55 18.8239 14.5725 18.2903 15.4503C17.7864 16.2282 17.0863 16.8598 16.2605 17.2817C14.6736 18.1273 12.9446 18.674 11.1596 18.8946C8.41149 19.2242 5.62851 18.6977 3.19138 17.3872C2.31956 16.949 1.50377 16.4075 0.761677 15.7744C0.426034 15.4904 0.183867 15.112 0.0667625 14.6885C-0.0503416 14.265 -0.0369424 13.8161 0.105207 13.4003C0.965414 10.1445 1.84071 6.8886 2.70846 3.60261C2.86597 2.88846 3.15788 2.2107 3.56867 1.60539C3.86133 1.20356 4.23068 0.863525 4.65544 0.604834C5.08019 0.346142 5.55198 0.173905 6.04365 0.0980484C6.94711 -0.0300786 7.86417 -0.0300786 8.76763 0.0980484C9.27208 0.169678 9.73646 0.412551 10.0827 0.785868C10.429 1.15919 10.6361 1.64019 10.6691 2.14803C10.6691 3.07504 10.6691 4.0096 10.6691 4.93661C10.6652 5.15566 10.6179 5.37176 10.5299 5.57243C10.4419 5.7731 10.3149 5.95436 10.1563 6.10574C9.99777 6.25711 9.81074 6.3756 9.60606 6.45435C9.40137 6.5331 9.18309 6.57053 8.96382 6.56452C8.47335 6.56452 7.97534 6.56452 7.45469 6.56452C7.22077 6.56452 7.16796 6.61728 7.16796 6.85092L7.19814 8.49393ZM5.93801 8.92351C5.93801 8.04925 5.93801 7.175 5.93801 6.29321C5.93801 6.05706 5.93801 5.82343 5.93801 5.5923C5.93801 5.33606 5.99838 5.29084 6.25493 5.29084H8.59409C8.73072 5.2895 8.867 5.27688 9.00155 5.25314C9.2732 5.20792 9.39393 5.08735 9.40147 4.81603C9.40147 4.06236 9.45429 3.27099 9.40147 2.49471C9.42007 2.33447 9.40268 2.17212 9.35055 2.01944C9.29842 1.86675 9.21287 1.72758 9.10012 1.61208C8.98737 1.49658 8.85026 1.40763 8.69876 1.35172C8.54727 1.2958 8.3852 1.27432 8.22435 1.28884C7.62054 1.25996 7.01547 1.27256 6.41339 1.32653C6.02444 1.35093 5.64675 1.46672 5.31108 1.66447C4.9754 1.86223 4.69123 2.13638 4.48169 2.46458C4.24968 2.83163 4.07179 3.23013 3.9535 3.64782C3.28948 6.0671 2.6481 8.48638 1.99917 10.9057C1.75771 11.8327 1.5087 12.7597 1.2446 13.6942C1.16775 13.946 1.17233 14.2155 1.25767 14.4644C1.34302 14.7134 1.50479 14.9292 1.71998 15.081C1.84735 15.1893 1.98657 15.2828 2.13499 15.3598C3.1763 15.8874 4.20251 16.4602 5.27399 16.9275C6.98235 17.6494 8.85092 17.9094 10.6918 17.6811C12.4358 17.4587 14.1268 16.9306 15.687 16.1211C16.2456 15.8502 16.7183 15.4302 17.0528 14.9076C17.55 14.1042 17.7502 13.1524 17.6187 12.217C17.5247 11.4492 17.1843 10.7325 16.6483 10.1741C16.1124 9.61565 15.4098 9.24566 14.6457 9.11947C13.8911 9.02903 13.0762 9.02149 12.2915 8.99888C12.006 8.99243 11.7205 9.01263 11.4388 9.05919C10.6317 9.20897 9.8939 9.61309 9.33356 10.2123C8.6469 10.9132 7.97534 11.6292 7.27359 12.315C7.04214 12.5052 6.78884 12.6671 6.51903 12.7974C6.45945 12.8267 6.39152 12.8345 6.32683 12.8194C6.26215 12.8043 6.20473 12.7672 6.16438 12.7145C5.96577 12.5132 5.85229 12.2433 5.84746 11.9608C5.93801 10.966 5.93801 9.9485 5.93801 8.92351Z" fill="currentColor"/>
</svg>
